HIERARCHY
ROOT Hips
{
	OFFSET 0.000000 0.000000 0.000000
	CHANNELS 6 Xposition Yposition Zposition Zrotation Yrotation Xrotation 
	JOINT LowerBack
	{
		OFFSET 0.000000 0.000000 0.000000
		CHANNELS 3 Zrotation Yrotation Xrotation
		JOINT Spine
		{
			OFFSET 0.028270 2.035590 -0.193380
			CHANNELS 3 Zrotation Yrotation Xrotation
			JOINT Spine1
			{
				OFFSET 0.056720 2.048850 -0.042750
				CHANNELS 3 Zrotation Yrotation Xrotation
				JOINT Neck
				{
					OFFSET 0.000000 0.000000 0.000000
					CHANNELS 3 Zrotation Yrotation Xrotation
					JOINT Neck1
					{
						OFFSET -0.054170 1.746240 0.172020
						CHANNELS 3 Zrotation Yrotation Xrotation
						JOINT Head
						{
							OFFSET 0.104070 1.761360 -0.123970
							CHANNELS 3 Zrotation Yrotation Xrotation
							End Site
							{
								OFFSET 0.000000 0.000000 0.000000
							}
						}
					}
				}
				JOINT LeftShoulder
				{
					OFFSET 0.000000 0.000000 0.000000
					CHANNELS 3 Zrotation Yrotation Xrotation
					JOINT LeftArm
					{
						OFFSET 3.362410 1.200890 -0.311210
						CHANNELS 3 Zrotation Yrotation Xrotation
						JOINT LeftForeArm
						{
							OFFSET 4.983000 -0.000000 -0.000000
							CHANNELS 3 Zrotation Yrotation Xrotation
							JOINT LeftHand
							{
								OFFSET 3.483560 -0.000000 -0.000000
								CHANNELS 3 Zrotation Yrotation Xrotation
								JOINT LeftFingerBase
								{
									OFFSET 0.000000 0.000000 0.000000
									CHANNELS 3 Zrotation Yrotation Xrotation
									JOINT LeftHandIndex1
									{
										OFFSET 0.715260 -0.000000 -0.000000
										CHANNELS 3 Zrotation Yrotation Xrotation
										End Site
										{
											OFFSET 0.000000 0.000000 0.000000
										}
									}
								}
								JOINT LThumb
								{
									OFFSET 0.000000 0.000000 0.000000
									CHANNELS 3 Zrotation Yrotation Xrotation
									End Site
									{
										OFFSET 0.000000 0.000000 0.000000
									}
								}
							}
						}
					}
				}
				JOINT RightShoulder
				{
					OFFSET 0.000000 0.000000 0.000000
					CHANNELS 3 Zrotation Yrotation Xrotation
					JOINT RightArm
					{
						OFFSET -3.136600 1.374050 -0.404650
						CHANNELS 3 Zrotation Yrotation Xrotation
						JOINT RightForeArm
						{
							OFFSET -5.241900 -0.000000 -0.000000
							CHANNELS 3 Zrotation Yrotation Xrotation
							JOINT RightHand
							{
								OFFSET -3.444170 -0.000000 -0.000000
								CHANNELS 3 Zrotation Yrotation Xrotation
								JOINT RightFingerBase
								{
									OFFSET 0.000000 0.000000 0.000000
									CHANNELS 3 Zrotation Yrotation Xrotation
									JOINT RightHandIndex1
									{
										OFFSET -0.622530 -0.000000 -0.000000
										CHANNELS 3 Zrotation Yrotation Xrotation
										End Site
										{
											OFFSET 0.000000 0.000000 0.000000
										}
									}
								}
								JOINT RThumb
								{
									OFFSET 0.000000 0.000000 0.000000
									CHANNELS 3 Zrotation Yrotation Xrotation
									End Site
									{
										OFFSET 0.000000 0.000000 0.000000
									}
								}
							}
						}
					}
				}
			}
		}
	}
}
}
MOTION
Frames: 9
Frame Time: 0.008333
-2.274667 16.866049 -1.101436 4.808690 63.208210 16.716763 -8.798022 0.944302 -4.540586 -1.972234 1.411666 -4.057387 -3.541892 1.209554 -1.116324 4.879048 -4.869803 -6.285320 -0.414112 -0.056957 0.416679 0.000000 0.000000 0.000000 -9.957942 13.994997 3.438371 -80.759262 46.646835 20.216872 -4.023892 -33.848785 -0.041626 -14.886736 13.325238 -1.781218 0.041445 -0.194849 -0.000000 0.000000 0.000000 0.000000 0.000000 0.000000 0.000000 -2.983236 0.127812 -2.077103 50.131334 61.706089 24.324692 0.313747 88.369639 -0.043528 -3.795608 7.313278 -0.260137 -0.035941 -0.592465 -0.000000 0.000000 0.000000 0.000000 0.000000 0.000000 0.000000 
-2.152758 16.828626 -1.073284 5.776050 62.930534 17.347759 -9.390068 0.802028 -4.191064 -2.118705 1.314756 -4.020409 -3.689130 1.122561 -1.214542 5.217284 -4.841059 -6.211696 -0.519558 -0.065650 0.428868 0.000000 0.000000 0.000000 -9.888926 13.165601 3.441579 -80.429713 46.268149 21.591143 -3.947008 -34.124140 -0.040068 -14.792730 13.048446 -1.733537 0.045640 -0.192426 -0.000000 0.000000 0.000000 0.000000 0.000000 0.000000 0.000000 -2.194207 0.267281 -1.877204 51.531075 60.977834 25.447221 0.302869 88.384009 -0.042191 -3.819756 7.352520 -0.263751 -0.025212 -0.591570 -0.000000 0.000000 0.000000 0.000000 0.000000 0.000000 0.000000 
-2.033966 16.786975 -1.049862 6.630010 62.534677 17.849292 -9.899015 0.688166 -3.801786 -2.252493 1.239510 -3.984503 -3.850981 1.058653 -1.342679 5.525852 -4.742579 -6.116041 -0.640047 -0.075837 0.446616 0.000000 0.000000 0.000000 -9.904416 12.308711 3.433190 -79.922585 45.768326 23.302149 -3.839795 -34.409728 -0.037612 -14.526838 12.599869 -1.644046 0.050580 -0.188363 -0.000000 0.000000 0.000000 0.000000 0.000000 0.000000 0.000000 -1.390287 0.508580 -1.674162 53.059116 60.085604 26.660442 0.289412 88.355635 -0.040932 -3.835249 7.422737 -0.267858 -0.014024 -0.590504 -0.000000 0.000000 0.000000 0.000000 0.000000 0.000000 0.000000 
-1.918147 16.740487 -1.031463 7.350184 62.019455 18.205553 -10.315058 0.601211 -3.378242 -2.370957 1.183825 -3.950101 -4.026532 1.015029 -1.498208 5.803247 -4.573821 -6.004006 -0.774582 -0.087338 0.468340 0.000000 0.000000 0.000000 -9.997122 11.460459 3.419910 -79.231073 45.128417 25.331979 -3.704242 -34.698469 -0.034483 -14.120789 12.076120 -1.531746 0.055958 -0.182946 -0.000000 0.000000 0.000000 0.000000 0.000000 0.000000 0.000000 -0.576793 0.852258 -1.474780 54.682219 59.032773 27.921454 0.275357 88.265401 -0.038978 -3.836260 7.517217 -0.271663 -0.002948 -0.589276 -0.000000 0.000000 0.000000 0.000000 0.000000 0.000000 0.000000 
-1.805055 16.688919 -1.018125 7.931162 61.393388 18.413584 -10.634843 0.536803 -2.924831 -2.472640 1.143375 -3.916882 -4.214310 0.986706 -1.676902 6.051862 -4.338090 -5.882104 -0.922214 -0.099954 0.492132 0.000000 0.000000 0.000000 -10.155792 10.650870 3.409678 -78.363039 44.325018 27.631476 -3.545143 -34.967525 -0.030912 -13.610252 11.559191 -1.413237 0.061339 -0.176380 -0.000000 0.000000 0.000000 0.000000 0.000000 0.000000 0.000000 0.246201 1.293228 -1.284339 56.367718 57.823953 29.189181 0.261439 88.093602 -0.037154 -3.821759 7.629809 -0.275067 0.007547 -0.587933 -0.000000 0.000000 0.000000 0.000000 0.000000 0.000000 0.000000 
-1.694312 16.632377 -1.009539 8.380287 60.673134 18.483466 -10.861307 0.488565 -2.445761 -2.557319 1.112339 -3.883916 -4.412224 0.967296 -1.872639 6.277858 -4.043479 -5.757563 -1.082080 -0.113481 0.515819 0.000000 0.000000 0.000000 -10.365493 9.901301 3.410928 -77.341332 43.333324 30.125641 -3.370251 -35.180670 -0.027118 -13.035389 11.106556 -1.300317 0.066219 -0.168795 -0.000000 0.000000 0.000000 0.000000 0.000000 0.000000 0.000000 1.084059 1.819466 -1.105958 58.081075 56.466152 30.424418 0.249630 87.820368 -0.035293 -3.795479 7.757799 -0.277973 0.017124 -0.586591 0.000000 0.000000 0.000000 0.000000 0.000000 0.000000 0.000000 
-1.585488 16.571384 -1.005138 8.716161 59.882775 18.436437 -11.002912 0.448891 -1.945260 -2.625837 1.084068 -3.849836 -4.617326 0.949704 -2.078000 6.489313 -3.702972 -5.637924 -1.253108 -0.127689 0.537110 0.000000 0.000000 0.000000 -10.607501 9.223434 3.431868 -76.201734 42.129047 32.725151 -3.189704 -35.291599 -0.023313 -12.436123 10.743356 -1.199688 0.070053 -0.160250 -0.000000 0.000000 0.000000 0.000000 0.000000 0.000000 0.000000 1.943693 2.412043 -0.941175 59.792048 54.964870 31.592904 0.241658 87.426109 -0.033512 -3.765486 7.903613 -0.281084 0.025608 -0.585420 0.000000 0.000000 0.000000 0.000000 0.000000 0.000000 0.000000 
-1.478102 16.506919 -1.004069 8.963659 59.051190 18.300643 -11.072199 0.410193 -1.427708 -2.679980 1.052117 -3.813177 -4.826582 0.927159 -2.285441 6.695673 -3.335270 -5.530361 -1.434306 -0.142368 0.553836 0.000000 0.000000 0.000000 -10.862868 8.615043 3.478486 -74.986974 40.699420 35.329790 -3.015354 -35.254708 -0.019709 -11.846698 10.462738 -1.112345 0.072287 -0.150798 -0.000000 0.000000 0.000000 0.000000 0.000000 0.000000 0.000000 2.834679 3.044109 -0.789093 61.472895 53.326273 32.666358 0.239159 86.889997 -0.031941 -3.743863 8.075746 -0.285698 0.033001 -0.584627 0.000000 0.000000 0.000000 0.000000 0.000000 0.000000 0.000000 
-1.371682 16.440269 -1.005340 9.150774 58.209842 18.107937 -11.084498 0.365350 -0.897798 -2.722054 1.010567 -3.772423 -5.036016 0.893538 -2.487211 6.904806 -2.960774 -5.441769 -1.623988 -0.157262 0.563957 0.000000 0.000000 0.000000 -11.106092 8.071034 3.554833 -73.742275 39.033090 37.858140 -2.858344 -35.021434 -0.016490 -11.286319 10.227162 -1.035088 0.072415 -0.140473 -0.000000 0.000000 0.000000 0.000000 0.000000 0.000000 0.000000 3.761050 3.685640 -0.649270 63.106933 51.551655 33.621689 0.243563 86.189757 -0.030682 -3.741462 8.288799 -0.292916 0.039345 -0.584410 0.000000 0.000000 0.000000 0.000000 0.000000 0.000000 0.000000 
